<svg width="36" height="36" viewBox="0 0 36 36" fill="none" xmlns="http://www.w3.org/2000/svg">
<path d="M0 5.17241C0 2.31577 2.31577 0 5.17241 0H30.8276C33.6842 0 36 2.31577 36 5.17241V30.8276C36 33.6842 33.6842 36 30.8276 36H5.17241C2.31577 36 0 33.6842 0 30.8276V5.17241Z" fill="#FF5D0B"/>
<path fill-rule="evenodd" clip-rule="evenodd" d="M15.9187 4.41401C17.2513 3.862 18.7487 3.862 20.0813 4.41401L26.135 6.92152C27.4677 7.47352 28.5265 8.53232 29.0785 9.86499L31.586 15.9187C32.138 17.2513 32.138 18.7487 31.586 20.0813L29.0785 26.135C28.5265 27.4677 27.4677 28.5265 26.135 29.0785L20.0813 31.586C18.7487 32.138 17.2513 32.138 15.9187 31.586L9.86499 29.0785C8.53232 28.5265 7.47352 27.4677 6.92152 26.135L4.41401 20.0813C3.862 18.7487 3.862 17.2513 4.41401 15.9187L6.92152 9.86499C7.47352 8.53232 8.53232 7.47352 9.86499 6.92152L15.9187 4.41401ZM19.2488 6.42393C18.4492 6.09273 17.5508 6.09273 16.7512 6.42393L10.6975 8.93144C9.89793 9.26265 9.26265 9.89793 8.93144 10.6975L6.42393 16.7512C6.09273 17.5508 6.09273 18.4492 6.42393 19.2488L8.93144 25.3025C9.26265 26.1021 9.89793 26.7374 10.6975 27.0686L16.7512 29.5761C17.5508 29.9073 18.4492 29.9073 19.2488 29.5761L25.3025 27.0686C26.1021 26.7374 26.7374 26.1021 27.0686 25.3025L29.5761 19.2488C29.9073 18.4492 29.9073 17.5508 29.5761 16.7512L27.0686 10.6975C26.7374 9.89793 26.1021 9.26265 25.3025 8.93144L19.2488 6.42393Z" fill="#F9F3F1"/>
<path fill-rule="evenodd" clip-rule="evenodd" d="M16.0139 9.39507C17.2856 8.86831 18.7144 8.86831 19.9861 9.39507L22.6802 10.511C23.9519 11.0377 24.9623 12.0481 25.489 13.3198L26.6049 16.0139C27.1317 17.2856 27.1317 18.7144 26.6049 19.9861L25.489 22.6802C24.9623 23.9519 23.9519 24.9623 22.6802 25.489L19.9861 26.6049C18.7144 27.1317 17.2856 27.1317 16.0139 26.6049L13.3198 25.489C12.0481 24.9623 11.0377 23.9519 10.511 22.6802L9.39507 19.9861C8.86831 18.7144 8.86831 17.2856 9.39507 16.0139L10.511 13.3198C11.0377 12.0481 12.0481 11.0377 13.3198 10.511L16.0139 9.39507Z" fill="#F9F3F1"/>
</svg>
