<svg width="200" height="32" viewBox="0 0 200 32" fill="none" xmlns="http://www.w3.org/2000/svg">
<path d="M42.6758 22.4854V10.2715C42.6758 9.50521 42.8548 8.96094 43.2129 8.63867C43.5781 8.31641 44.1009 8.15527 44.7812 8.15527H50.7861C51.6097 8.15527 52.3438 8.24479 52.9883 8.42383C53.64 8.60286 54.1628 8.83561 54.5566 9.12207C54.9505 9.40137 55.2764 9.73796 55.5342 10.1318C55.792 10.5257 55.971 10.9196 56.0713 11.3135C56.1715 11.7074 56.2217 12.1227 56.2217 12.5596C56.2217 13.4548 55.9746 14.264 55.4805 14.9873C54.9863 15.7106 54.3239 16.1689 53.4932 16.3623V16.4053C53.8512 16.4554 54.1628 16.5521 54.4277 16.6953C54.6927 16.8314 54.904 16.9961 55.0615 17.1895C55.2191 17.3757 55.3444 17.6048 55.4375 17.877C55.5306 18.1419 55.5915 18.4105 55.6201 18.6826C55.6559 18.9548 55.6738 19.2663 55.6738 19.6172C55.6738 20.319 55.7526 20.9993 55.9102 21.6582C56.0749 22.3171 56.1572 22.7253 56.1572 22.8828C56.1572 23.2839 55.9818 23.6204 55.6309 23.8926C55.2871 24.1576 54.8968 24.29 54.46 24.29C54.0876 24.29 53.7617 24.2184 53.4824 24.0752C53.2031 23.9391 52.9919 23.7744 52.8486 23.5811C52.7126 23.3877 52.6016 23.1621 52.5156 22.9043C52.4297 22.6393 52.376 22.4209 52.3545 22.249C52.3402 22.0771 52.333 21.9053 52.333 21.7334C52.333 20.3011 52.1576 19.2949 51.8066 18.7148C51.4557 18.1348 50.8005 17.8447 49.8408 17.8447H46.2852V22.4854C46.2852 23.0225 46.1204 23.4593 45.791 23.7959C45.4616 24.1253 45.0247 24.29 44.4805 24.29C43.9362 24.29 43.4993 24.1253 43.1699 23.7959C42.8405 23.4593 42.6758 23.0225 42.6758 22.4854ZM46.2852 10.9268V15.2021H49.8838C50.1774 15.2021 50.446 15.1878 50.6895 15.1592C50.9401 15.1234 51.1872 15.0589 51.4307 14.9658C51.6742 14.8656 51.8783 14.7402 52.043 14.5898C52.2148 14.4323 52.3509 14.2246 52.4512 13.9668C52.5586 13.709 52.6123 13.4082 52.6123 13.0645C52.6123 12.2624 52.3903 11.7074 51.9463 11.3994C51.5094 11.0843 50.8613 10.9268 50.002 10.9268H46.2852ZM68.2552 18.8545H60.9935C60.9935 19.721 61.2585 20.4264 61.7884 20.9707C62.3183 21.5078 63.0417 21.7764 63.9583 21.7764C64.4023 21.7764 64.7926 21.7227 65.1292 21.6152C65.473 21.5078 65.7451 21.3753 65.9456 21.2178C66.1461 21.0602 66.3288 20.9062 66.4935 20.7559C66.6582 20.5983 66.8372 20.4658 67.0306 20.3584C67.2239 20.251 67.4388 20.1973 67.6751 20.1973C68.0475 20.1973 68.359 20.3262 68.6097 20.584C68.8675 20.8418 68.9964 21.1283 68.9964 21.4434C68.9964 21.8158 68.8818 22.1631 68.6527 22.4854C68.4307 22.8005 68.1406 23.069 67.7825 23.291C67.4245 23.5059 67.0198 23.6921 66.5687 23.8496C66.1175 24 65.6699 24.111 65.2259 24.1826C64.7819 24.2542 64.3594 24.29 63.9583 24.29C63.0918 24.29 62.304 24.179 61.595 23.957C60.8861 23.7279 60.2988 23.4235 59.8333 23.0439C59.375 22.6644 58.9847 22.2204 58.6624 21.7119C58.3473 21.2035 58.1217 20.6807 57.9857 20.1436C57.8496 19.5993 57.7816 19.0371 57.7816 18.457C57.7816 16.5664 58.3223 15.0518 59.4036 13.9131C60.485 12.7744 61.9674 12.2051 63.8509 12.2051C64.7461 12.2051 65.5661 12.3555 66.3109 12.6562C67.0557 12.957 67.668 13.3545 68.1478 13.8486C68.6276 14.3428 69 14.9049 69.265 15.5352C69.5299 16.1582 69.6624 16.8027 69.6624 17.4688C69.6624 18.013 69.5622 18.3818 69.3616 18.5752C69.1683 18.7614 68.7995 18.8545 68.2552 18.8545ZM60.9935 17.0068H66.6224C66.5364 16.2692 66.2392 15.6605 65.7308 15.1807C65.2295 14.6937 64.6243 14.4502 63.9154 14.4502C63.1348 14.4502 62.4974 14.6758 62.0032 15.127C61.5163 15.5781 61.1797 16.2048 60.9935 17.0068ZM72.2536 22.6787V14.6113H71.695C71.251 14.6113 70.9287 14.5254 70.7282 14.3535C70.5276 14.1745 70.4274 13.9059 70.4274 13.5479C70.4274 13.1898 70.5276 12.9248 70.7282 12.7529C70.9287 12.5811 71.251 12.4951 71.695 12.4951H72.2536V10.8838C72.2536 9.78809 72.5149 9.00033 73.0377 8.52051C73.5605 8.03353 74.4199 7.79004 75.6159 7.79004C76.1745 7.79004 76.6364 7.90462 77.0016 8.13379C77.3668 8.36296 77.5495 8.73177 77.5495 9.24023C77.5495 9.61263 77.4456 9.90267 77.2379 10.1104C77.0302 10.318 76.776 10.4219 76.4752 10.4219C76.4108 10.4219 76.3141 10.4111 76.1852 10.3896C76.0635 10.3682 75.9704 10.3574 75.9059 10.3574C75.6123 10.3574 75.4655 10.5938 75.4655 11.0664V12.4951H76.2496C77.1162 12.4951 77.5495 12.846 77.5495 13.5479C77.5495 14.2568 77.1162 14.6113 76.2496 14.6113H75.4655V22.6787C75.4655 23.1943 75.3187 23.5918 75.025 23.8711C74.7386 24.1504 74.3483 24.29 73.8541 24.29C73.36 24.29 72.9697 24.1504 72.6832 23.8711C72.3968 23.5918 72.2536 23.1943 72.2536 22.6787ZM78.9137 22.6787V9.47656C78.9137 8.96094 79.0569 8.56706 79.3434 8.29492C79.637 8.01562 80.0309 7.87598 80.525 7.87598C81.0192 7.87598 81.4095 8.01562 81.6959 8.29492C81.9824 8.56706 82.1256 8.96094 82.1256 9.47656V22.6787C82.1256 23.1943 81.9824 23.5918 81.6959 23.8711C81.4095 24.1504 81.0192 24.29 80.525 24.29C80.0309 24.29 79.637 24.1504 79.3434 23.8711C79.0569 23.5918 78.9137 23.1943 78.9137 22.6787ZM94.5351 18.8545H87.2734C87.2734 19.721 87.5384 20.4264 88.0683 20.9707C88.5983 21.5078 89.3216 21.7764 90.2382 21.7764C90.6823 21.7764 91.0726 21.7227 91.4091 21.6152C91.7529 21.5078 92.025 21.3753 92.2255 21.2178C92.4261 21.0602 92.6087 20.9062 92.7734 20.7559C92.9381 20.5983 93.1171 20.4658 93.3105 20.3584C93.5039 20.251 93.7187 20.1973 93.955 20.1973C94.3274 20.1973 94.639 20.3262 94.8896 20.584C95.1474 20.8418 95.2763 21.1283 95.2763 21.4434C95.2763 21.8158 95.1617 22.1631 94.9326 22.4854C94.7106 22.8005 94.4205 23.069 94.0625 23.291C93.7044 23.5059 93.2998 23.6921 92.8486 23.8496C92.3974 24 91.9498 24.111 91.5058 24.1826C91.0618 24.2542 90.6393 24.29 90.2382 24.29C89.3717 24.29 88.5839 24.179 87.875 23.957C87.166 23.7279 86.5787 23.4235 86.1132 23.0439C85.6549 22.6644 85.2646 22.2204 84.9423 21.7119C84.6272 21.2035 84.4017 20.6807 84.2656 20.1436C84.1295 19.5993 84.0615 19.0371 84.0615 18.457C84.0615 16.5664 84.6022 15.0518 85.6836 13.9131C86.7649 12.7744 88.2474 12.2051 90.1308 12.2051C91.026 12.2051 91.846 12.3555 92.5908 12.6562C93.3356 12.957 93.9479 13.3545 94.4277 13.8486C94.9075 14.3428 95.2799 14.9049 95.5449 15.5352C95.8099 16.1582 95.9423 16.8027 95.9423 17.4688C95.9423 18.013 95.8421 18.3818 95.6416 18.5752C95.4482 18.7614 95.0794 18.8545 94.5351 18.8545ZM87.2734 17.0068H92.9023C92.8164 16.2692 92.5192 15.6605 92.0107 15.1807C91.5094 14.6937 90.9043 14.4502 90.1953 14.4502C89.4147 14.4502 88.7773 14.6758 88.2832 15.127C87.7962 15.5781 87.4596 16.2048 87.2734 17.0068ZM97.0725 18.4785C97.0725 16.5807 97.5953 15.0625 98.6409 13.9238C99.6936 12.778 101.183 12.2051 103.11 12.2051C104.413 12.2051 105.519 12.5166 106.429 13.1396C107.338 13.7555 107.793 14.4502 107.793 15.2236C107.793 15.6676 107.65 16.0114 107.364 16.2549C107.084 16.4912 106.73 16.6094 106.3 16.6094C106.028 16.6094 105.799 16.5449 105.613 16.416C105.426 16.2871 105.269 16.1296 105.14 15.9434C105.018 15.7572 104.882 15.571 104.732 15.3848C104.588 15.1986 104.37 15.041 104.076 14.9121C103.79 14.7832 103.435 14.7188 103.013 14.7188C102.676 14.7188 102.354 14.7832 102.046 14.9121C101.745 15.0339 101.455 15.2308 101.176 15.5029C100.904 15.7751 100.685 16.1654 100.521 16.6738C100.363 17.1823 100.284 17.7839 100.284 18.4785C100.284 19.4954 100.517 20.3011 100.983 20.8955C101.455 21.4827 102.125 21.7764 102.991 21.7764C103.292 21.7764 103.561 21.7406 103.797 21.6689C104.033 21.5902 104.223 21.4899 104.366 21.3682C104.51 21.2464 104.639 21.1139 104.753 20.9707C104.875 20.8203 104.986 20.6735 105.086 20.5303C105.186 20.3799 105.294 20.2438 105.408 20.1221C105.523 20.0003 105.666 19.9036 105.838 19.832C106.017 19.7533 106.221 19.7139 106.45 19.7139C106.844 19.7139 107.167 19.8356 107.417 20.0791C107.668 20.3226 107.793 20.609 107.793 20.9385C107.793 21.3037 107.689 21.6797 107.482 22.0664C107.274 22.446 106.977 22.804 106.59 23.1406C106.211 23.4772 105.699 23.7529 105.054 23.9678C104.409 24.1826 103.693 24.29 102.906 24.29C101.939 24.29 101.079 24.1468 100.327 23.8604C99.5755 23.5739 98.9632 23.1693 98.4905 22.6465C98.025 22.1237 97.6705 21.5114 97.427 20.8096C97.1907 20.1077 97.0725 19.3307 97.0725 18.4785ZM110.03 21.4219V14.6113H109.471C109.027 14.6113 108.705 14.5254 108.504 14.3535C108.304 14.1745 108.204 13.9059 108.204 13.5479C108.204 13.1898 108.304 12.9248 108.504 12.7529C108.705 12.5811 109.027 12.4951 109.471 12.4951H110.03V10.54C110.03 10.0244 110.173 9.62695 110.46 9.34766C110.746 9.06836 111.136 8.92871 111.63 8.92871C112.125 8.92871 112.515 9.06836 112.801 9.34766C113.095 9.62695 113.242 10.0244 113.242 10.54V12.4951H114.209C114.696 12.4951 115.057 12.5775 115.294 12.7422C115.537 12.9069 115.659 13.1755 115.659 13.5479C115.659 13.9274 115.537 14.1995 115.294 14.3643C115.057 14.529 114.696 14.6113 114.209 14.6113H113.242V21.0352C113.242 21.5293 113.518 21.7764 114.069 21.7764H114.531C114.882 21.7764 115.157 21.873 115.358 22.0664C115.559 22.2598 115.659 22.5247 115.659 22.8613C115.659 23.3268 115.462 23.6813 115.068 23.9248C114.674 24.1683 114.094 24.29 113.328 24.29C112.182 24.29 111.344 24.0537 110.814 23.5811C110.291 23.1012 110.03 22.3815 110.03 21.4219ZM117.186 22.6787V13.8164C117.186 12.7422 117.724 12.2051 118.798 12.2051C119.865 12.2051 120.398 12.7422 120.398 13.8164V22.6787C120.398 23.7529 119.865 24.29 118.798 24.29C117.724 24.29 117.186 23.7529 117.186 22.6787ZM117.605 10.6367C117.283 10.3073 117.122 9.91341 117.122 9.45508C117.122 8.99674 117.283 8.60645 117.605 8.28418C117.935 7.95475 118.332 7.79004 118.798 7.79004C119.263 7.79004 119.657 7.95475 119.979 8.28418C120.302 8.60645 120.463 8.99674 120.463 9.45508C120.463 9.92057 120.298 10.318 119.969 10.6475C119.646 10.9697 119.256 11.1309 118.798 11.1309C118.332 11.1309 117.935 10.9661 117.605 10.6367ZM125.546 18.2314C125.546 18.9118 125.636 19.5205 125.815 20.0576C126.001 20.5947 126.305 21.0387 126.728 21.3896C127.15 21.7334 127.666 21.9053 128.275 21.9053C128.883 21.9053 129.399 21.7334 129.822 21.3896C130.244 21.0387 130.545 20.5947 130.724 20.0576C130.91 19.5205 131.003 18.9118 131.003 18.2314C131.003 17.1357 130.774 16.2549 130.316 15.5889C129.857 14.9157 129.177 14.5791 128.275 14.5791C127.372 14.5791 126.692 14.9157 126.234 15.5889C125.775 16.2549 125.546 17.1357 125.546 18.2314ZM122.334 18.2314C122.334 17.3792 122.463 16.5915 122.721 15.8682C122.986 15.1377 123.362 14.5003 123.849 13.9561C124.336 13.4046 124.959 12.9749 125.718 12.667C126.477 12.359 127.329 12.2051 128.275 12.2051C129.22 12.2051 130.072 12.359 130.831 12.667C131.59 12.9749 132.213 13.4046 132.7 13.9561C133.187 14.5003 133.56 15.1377 133.818 15.8682C134.083 16.5915 134.215 17.3792 134.215 18.2314C134.215 18.8975 134.151 19.5205 134.022 20.1006C133.893 20.6807 133.678 21.2321 133.377 21.7549C133.084 22.2705 132.711 22.7145 132.26 23.0869C131.816 23.4593 131.254 23.7529 130.573 23.9678C129.893 24.1826 129.127 24.29 128.275 24.29C127.422 24.29 126.656 24.1826 125.976 23.9678C125.295 23.7529 124.73 23.4593 124.279 23.0869C123.835 22.7145 123.462 22.2705 123.161 21.7549C122.868 21.2321 122.656 20.6807 122.528 20.1006C122.399 19.5205 122.334 18.8975 122.334 18.2314ZM135.968 22.6787V13.8164C135.968 13.3151 136.086 12.9212 136.323 12.6348C136.566 12.3483 136.932 12.2051 137.419 12.2051C137.905 12.2051 138.267 12.3483 138.503 12.6348C138.747 12.9212 138.869 13.3151 138.869 13.8164V14.2354H138.912C139.936 12.8818 141.236 12.2051 142.811 12.2051C143.327 12.2051 143.81 12.2767 144.261 12.4199C144.72 12.556 145.149 12.778 145.55 13.0859C145.951 13.3939 146.27 13.8343 146.506 14.4072C146.743 14.973 146.861 15.6462 146.861 16.4268V22.6787C146.861 23.7529 146.324 24.29 145.25 24.29C144.183 24.29 143.649 23.7529 143.649 22.6787V17.0713C143.649 16.391 143.477 15.8503 143.133 15.4492C142.79 15.0482 142.285 14.8477 141.619 14.8477C141.01 14.8477 140.451 15.0804 139.943 15.5459C139.434 16.0114 139.18 16.6237 139.18 17.3828V22.6787C139.18 23.7529 138.643 24.29 137.569 24.29C136.502 24.29 135.968 23.7529 135.968 22.6787Z" fill="black"/>
<path fill-rule="evenodd" clip-rule="evenodd" d="M13.6213 0.473149C15.1444 -0.157716 16.8556 -0.157717 18.3787 0.473149L25.2972 3.33888C26.8202 3.96974 28.0303 5.1798 28.6611 6.70284L31.5269 13.6213C32.1577 15.1444 32.1577 16.8556 31.5269 18.3787L28.6611 25.2972C28.0303 26.8202 26.8202 28.0303 25.2972 28.6611L18.3787 31.5269C16.8556 32.1577 15.1444 32.1577 13.6213 31.5269L6.70284 28.6611C5.1798 28.0303 3.96974 26.8202 3.33888 25.2972L0.473149 18.3787C-0.157716 16.8556 -0.157717 15.1444 0.473149 13.6213L3.33888 6.70284C3.96974 5.1798 5.1798 3.96974 6.70284 3.33888L13.6213 0.473149ZM17.4272 2.77021C16.5134 2.39169 15.4866 2.39169 14.5728 2.77021L7.65431 5.63594C6.74049 6.01445 6.01445 6.74049 5.63593 7.65431L2.77021 14.5728C2.39169 15.4866 2.39169 16.5134 2.77021 17.4272L5.63593 24.3457C6.01445 25.2595 6.74049 25.9855 7.65431 26.3641L14.5728 29.2298C15.4866 29.6083 16.5134 29.6083 17.4272 29.2298L24.3457 26.3641C25.2595 25.9855 25.9855 25.2595 26.3641 24.3457L29.2298 17.4272C29.6083 16.5134 29.6083 15.4866 29.2298 14.5728L26.3641 7.65431C25.9855 6.74049 25.2595 6.01445 24.3457 5.63593L17.4272 2.77021Z" fill="#FF5D0B"/>
<path fill-rule="evenodd" clip-rule="evenodd" d="M14.2039 7.35726C15.3539 6.88091 16.6461 6.88091 17.7961 7.35726L20.8413 8.61865C21.9913 9.095 22.905 10.0087 23.3814 11.1587L24.6427 14.2039C25.1191 15.3539 25.1191 16.6461 24.6427 17.7961L23.3814 20.8413C22.905 21.9913 21.9913 22.905 20.8413 23.3814L17.7961 24.6427C16.6461 25.1191 15.3539 25.1191 14.2039 24.6427L11.1587 23.3814C10.0087 22.905 9.095 21.9913 8.61865 20.8413L7.35726 17.7961C6.88091 16.6461 6.88091 15.3539 7.35726 14.2039L8.61865 11.1587C9.095 10.0087 10.0087 9.095 11.1587 8.61865L14.2039 7.35726Z" fill="#FF5D0B"/>
<path fill-rule="evenodd" clip-rule="evenodd" d="M13.5725 5.48286C15.1268 4.83905 16.8732 4.83905 18.4275 5.48286L21.7202 6.84675C23.2745 7.49057 24.5094 8.72546 25.1533 10.2798L26.5171 13.5725C27.161 15.1268 27.161 16.8732 26.5171 18.4275L25.1533 21.7202C24.5094 23.2745 23.2745 24.5094 21.7202 25.1533L18.4275 26.5171C16.8732 27.161 15.1268 27.161 13.5725 26.5171L10.2798 25.1533C8.72546 24.5094 7.49057 23.2745 6.84675 21.7202L5.48286 18.4275C4.83905 16.8732 4.83905 15.1268 5.48286 13.5725L6.84675 10.2798C7.49057 8.72546 8.72546 7.49057 10.2798 6.84675L13.5725 5.48286ZM17.4565 7.82708C16.5239 7.44079 15.4761 7.44079 14.5435 7.82708L11.2508 9.19096C10.3182 9.57725 9.57725 10.3182 9.19096 11.2508L7.82708 14.5435C7.44079 15.4761 7.44079 16.5239 7.82708 17.4565L9.19096 20.7492C9.57725 21.6818 10.3182 22.4227 11.2508 22.809L14.5435 24.1729C15.4761 24.5592 16.5239 24.5592 17.4565 24.1729L20.7492 22.809C21.6818 22.4227 22.4227 21.6818 22.809 20.7492L24.1729 17.4565C24.5592 16.5239 24.5592 15.4761 24.1729 14.5435L22.809 11.2508C22.4227 10.3182 21.6818 9.57725 20.7492 9.19096L17.4565 7.82708Z" fill="#FF5D0B"/>
<rect x="158" y="7" width="42" height="18" rx="9" fill="black"/>
<path d="M166.814 19.0381V13.7598C166.814 13.4115 166.895 13.1641 167.058 13.0176C167.224 12.8711 167.462 12.7979 167.771 12.7979H169.954C171.705 12.7979 172.581 13.418 172.581 14.6582C172.581 14.9772 172.494 15.2686 172.322 15.5322C172.149 15.7926 171.899 15.988 171.57 16.1182V16.1377C171.967 16.2419 172.276 16.4372 172.498 16.7236C172.722 17.0101 172.834 17.3926 172.834 17.8711C172.834 18.2357 172.763 18.5579 172.62 18.8379C172.48 19.1178 172.286 19.3408 172.039 19.5068C171.791 19.6696 171.511 19.7933 171.199 19.8779C170.886 19.9593 170.548 20 170.183 20H167.771C167.462 20 167.224 19.9268 167.058 19.7803C166.895 19.6338 166.814 19.3864 166.814 19.0381ZM168.455 16.8018V18.7402H169.832C170.014 18.7402 170.177 18.7288 170.32 18.7061C170.463 18.68 170.605 18.6361 170.745 18.5742C170.888 18.5091 170.999 18.4098 171.077 18.2764C171.155 18.1429 171.194 17.9769 171.194 17.7783C171.194 17.609 171.163 17.4642 171.101 17.3438C171.042 17.2233 170.968 17.1289 170.876 17.0605C170.785 16.9889 170.667 16.9336 170.52 16.8945C170.377 16.8555 170.238 16.8311 170.105 16.8213C169.972 16.8083 169.814 16.8018 169.631 16.8018H168.455ZM168.455 13.999V15.7617H169.802C170.561 15.7617 170.94 15.4671 170.94 14.8779C170.94 14.6598 170.881 14.4824 170.764 14.3457C170.647 14.209 170.504 14.1178 170.334 14.0723C170.168 14.0234 169.975 13.999 169.753 13.999H168.455ZM173.75 19.0381V13.7598C173.75 13.4115 173.831 13.1641 173.994 13.0176C174.16 12.8711 174.398 12.7979 174.707 12.7979H178.559C178.823 12.7979 179.027 12.8483 179.17 12.9492C179.316 13.0469 179.389 13.2178 179.389 13.4619C179.389 13.7061 179.316 13.877 179.17 13.9746C179.027 14.0723 178.823 14.1211 178.559 14.1211H175.39V15.6787H178.169C178.41 15.6787 178.598 15.7259 178.735 15.8203C178.872 15.9115 178.94 16.0742 178.94 16.3086C178.94 16.543 178.872 16.7074 178.735 16.8018C178.598 16.8929 178.41 16.9385 178.169 16.9385H175.39V18.6816H178.638C178.901 18.6816 179.105 18.7305 179.248 18.8281C179.394 18.9258 179.468 19.0967 179.468 19.3408C179.468 19.585 179.394 19.7559 179.248 19.8535C179.105 19.9512 178.901 20 178.638 20H174.707C174.398 20 174.16 19.9268 173.994 19.7803C173.831 19.6338 173.75 19.3864 173.75 19.0381ZM181.994 19.3115V14.1797H180.446C180.202 14.1797 179.999 14.1195 179.836 13.999C179.677 13.8786 179.597 13.7093 179.597 13.4912C179.597 13.2731 179.677 13.1038 179.836 12.9834C179.999 12.8597 180.202 12.7979 180.446 12.7979H185.183C185.427 12.7979 185.629 12.8597 185.788 12.9834C185.951 13.1038 186.032 13.2731 186.032 13.4912C186.032 13.7093 185.951 13.8786 185.788 13.999C185.629 14.1195 185.427 14.1797 185.183 14.1797H183.635V19.3115C183.635 19.5557 183.56 19.7542 183.41 19.9072C183.261 20.057 183.062 20.1318 182.815 20.1318C182.567 20.1318 182.369 20.057 182.219 19.9072C182.069 19.7542 181.994 19.5557 181.994 19.3115ZM185.527 18.7793L187.646 13.1689C187.714 12.9899 187.812 12.863 187.939 12.7881C188.069 12.71 188.238 12.6709 188.447 12.6709H188.837C189.049 12.6709 189.226 12.7132 189.37 12.7979C189.516 12.8792 189.632 13.0371 189.716 13.2715L191.699 18.7793C191.806 19.0755 191.86 19.2855 191.86 19.4092C191.86 19.6077 191.783 19.7786 191.63 19.9219C191.481 20.0618 191.3 20.1318 191.088 20.1318C190.708 20.1318 190.46 19.9805 190.346 19.6777L189.926 18.4814H187.29L186.86 19.6777C186.756 19.9805 186.512 20.1318 186.127 20.1318C185.9 20.1318 185.716 20.0667 185.576 19.9365C185.436 19.8031 185.366 19.6273 185.366 19.4092C185.366 19.2855 185.419 19.0755 185.527 18.7793ZM189.57 17.3389L188.637 14.4482H188.618L187.646 17.3389H189.57Z" fill="white"/>
</svg>
